<?xml version="1.0" standalone="no"?>
<!DOCTYPE svg PUBLIC "-//W3C//DTD SVG 20010904//EN"
 "http://www.w3.org/TR/2001/REC-SVG-20010904/DTD/svg10.dtd">
<svg version="1.0" xmlns="http://www.w3.org/2000/svg"
 width="64.000000pt" height="64.000000pt" viewBox="0 0 64.000000 64.000000"
 preserveAspectRatio="xMidYMid meet">

<g transform="translate(0.000000,64.000000) scale(0.100000,-0.100000)"
fill="#000000" stroke="none">
<path d="M143 593 c9 -2 25 -2 35 0 9 3 1 5 -18 5 -19 0 -27 -2 -17 -5z"/>
<path d="M223 593 c9 -2 23 -2 30 0 6 3 -1 5 -18 5 -16 0 -22 -2 -12 -5z"/>
<path d="M393 593 c9 -2 23 -2 30 0 6 3 -1 5 -18 5 -16 0 -22 -2 -12 -5z"/>
<path d="M463 593 c9 -2 25 -2 35 0 9 3 1 5 -18 5 -19 0 -27 -2 -17 -5z"/>
<path d="M68 577 c-26 -10 -28 -15 -26 -61 l2 -51 3 48 c2 26 8 47 14 47 5 0
9 -67 9 -161 l0 -161 23 6 c43 13 142 18 177 9 21 -6 36 -16 38 -27 3 -16 -1
-17 -40 -10 -55 11 -155 9 -190 -5 l-27 -10 -4 122 -3 122 -2 -127 c-1 -93 1
-128 11 -132 9 -5 9 -7 -1 -12 -10 -5 -10 -9 -1 -20 9 -11 15 -11 25 -3 11 9
11 14 -2 27 -15 14 -15 16 2 22 11 4 43 10 72 14 l53 7 -5 -28 c-3 -15 -16
-50 -30 -78 -34 -67 -33 -75 9 -75 28 0 35 4 35 19 0 11 14 31 31 45 59 50
164 27 189 -40 8 -19 17 -24 44 -24 l35 0 -36 85 c-19 47 -33 88 -30 92 6 6
110 -11 140 -22 16 -7 17 6 17 183 l0 190 -31 11 c-38 13 -64 14 -31 1 22 -9
22 -13 22 -169 l0 -160 -32 10 c-42 12 -124 12 -166 0 l-32 -10 0 165 c0 90
-3 164 -7 164 -5 0 -7 -74 -5 -165 l3 -166 -28 8 c-37 10 -162 10 -190 0 l-23
-8 0 161 c0 157 0 161 23 170 12 5 15 9 7 8 -8 0 -27 -5 -42 -11z m522 -196
l0 -178 -52 13 c-66 17 -90 17 -156 0 -48 -12 -52 -12 -52 5 0 36 128 50 218
23 l22 -6 0 161 c0 101 4 161 10 161 6 0 10 -66 10 -179z"/>
<path d="M143 523 c9 -2 23 -2 30 0 6 3 -1 5 -18 5 -16 0 -22 -2 -12 -5z"/>
<path d="M228 523 c6 -2 18 -2 25 0 6 3 1 5 -13 5 -14 0 -19 -2 -12 -5z"/>
<path d="M388 523 c6 -2 18 -2 25 0 6 3 1 5 -13 5 -14 0 -19 -2 -12 -5z"/>
<path d="M478 523 c6 -2 18 -2 25 0 6 3 1 5 -13 5 -14 0 -19 -2 -12 -5z"/>
<path d="M173 463 c15 -2 39 -2 55 0 15 2 2 4 -28 4 -30 0 -43 -2 -27 -4z"/>
<path d="M413 463 c15 -2 39 -2 55 0 15 2 2 4 -28 4 -30 0 -43 -2 -27 -4z"/>
<path d="M108 453 c7 -3 16 -2 19 1 4 3 -2 6 -13 5 -11 0 -14 -3 -6 -6z"/>
<path d="M518 453 c7 -3 16 -2 19 1 4 3 -2 6 -13 5 -11 0 -14 -3 -6 -6z"/>
<path d="M183 403 c9 -2 23 -2 30 0 6 3 -1 5 -18 5 -16 0 -22 -2 -12 -5z"/>
<path d="M433 403 c9 -2 23 -2 30 0 6 3 -1 5 -18 5 -16 0 -22 -2 -12 -5z"/>
<path d="M258 393 c7 -3 16 -2 19 1 4 3 -2 6 -13 5 -11 0 -14 -3 -6 -6z"/>
<path d="M368 393 c7 -3 16 -2 19 1 4 3 -2 6 -13 5 -11 0 -14 -3 -6 -6z"/>
<path d="M508 393 c7 -3 16 -2 19 1 4 3 -2 6 -13 5 -11 0 -14 -3 -6 -6z"/>
<path d="M138 333 c7 -3 16 -2 19 1 4 3 -2 6 -13 5 -11 0 -14 -3 -6 -6z"/>
<path d="M238 333 c6 -2 18 -2 25 0 6 3 1 5 -13 5 -14 0 -19 -2 -12 -5z"/>
<path d="M378 333 c6 -2 18 -2 25 0 6 3 1 5 -13 5 -14 0 -19 -2 -12 -5z"/>
<path d="M488 333 c6 -2 18 -2 25 0 6 3 1 5 -13 5 -14 0 -19 -2 -12 -5z"/>
<path d="M101 138 c-13 -21 -13 -22 2 -9 14 11 20 11 35 0 14 -11 13 -10 -2 9
-11 12 -20 22 -20 22 -1 0 -7 -10 -15 -22z"/>
<path d="M51 106 c-9 -10 -8 -16 3 -25 10 -9 16 -8 25 3 9 10 8 16 -3 25 -10
9 -16 8 -25 -3z"/>
<path d="M115 110 c-3 -5 -1 -10 4 -10 6 0 11 5 11 10 0 6 -2 10 -4 10 -3 0
-8 -4 -11 -10z"/>
</g>
</svg>
